PathFileType	4	(X/Y/Z)	C:\Users\Basilio\Documents\Thesis Gigler\squatting_fais\c3dfiles\044\SLS_back_pre1\markers_experimental.trc
DataRate	CameraRate	NumFrames	NumMarkers	Units	OrigDataRate	OrigDataStartFrame	OrigNumFrames
200.000000	200.000000	4	68	mm	200.000000	432	1728
Frame#	Time	FHD			LBHD			RBHD			C7			T10			CLAV			LRAD			LRFIN			RSHO			RUPA1			RMUPA			RDUPA			RLEP			RMEP			RUL			LASI			RASI			USACR			LSACR			RSACR			LTHI1			LTHI2			LTHI3			LTHI4			LLFC			LMFC			LTIB1			LTIB2			LTIB3			LTIB4			LLMAL			LMMAL			LHEE			LMT1			LMT2			LMT5			RTHI			RTHI2			RTHI3			RTHI4			RLFC			RMFC			RTIB1			RTIB2			RTIB3			RTIB4			RLMAL			RMMAL			RHEE			RMT1			RMT2			RMT5			RUFIN			LSHO			LUUPA			LMUPA			LDUPA			LLEP			LMEP			LUL			*60			*61			*62			*63			*64			*65			*66			*67			
		X1	Y1	Z1	X2	Y2	Z2	X3	Y3	Z3	X4	Y4	Z4	X5	Y5	Z5	X6	Y6	Z6	X7	Y7	Z7	X8	Y8	Z8	X9	Y9	Z9	X10	Y10	Z10	X11	Y11	Z11	X12	Y12	Z12	X13	Y13	Z13	X14	Y14	Z14	X15	Y15	Z15	X16	Y16	Z16	X17	Y17	Z17	X18	Y18	Z18	X19	Y19	Z19	X20	Y20	Z20	X21	Y21	Z21	X22	Y22	Z22	X23	Y23	Z23	X24	Y24	Z24	X25	Y25	Z25	X26	Y26	Z26	X27	Y27	Z27	X28	Y28	Z28	X29	Y29	Z29	X30	Y30	Z30	X31	Y31	Z31	X32	Y32	Z32	X33	Y33	Z33	X34	Y34	Z34	X35	Y35	Z35	X36	Y36	Z36	X37	Y37	Z37	X38	Y38	Z38	X39	Y39	Z39	X40	Y40	Z40	X41	Y41	Z41	X42	Y42	Z42	X43	Y43	Z43	X44	Y44	Z44	X45	Y45	Z45	X46	Y46	Z46	X47	Y47	Z47	X48	Y48	Z48	X49	Y49	Z49	X50	Y50	Z50	X51	Y51	Z51	X52	Y52	Z52	X53	Y53	Z53	X54	Y54	Z54	X55	Y55	Z55	X56	Y56	Z56	X57	Y57	Z57	X58	Y58	Z58	X59	Y59	Z59	X60	Y60	Z60	X61	Y61	Z61	X62	Y62	Z62	X63	Y63	Z63	X64	Y64	Z64	X65	Y65	Z65	X66	Y66	Z66	X67	Y67	Z67	X68	Y68	Z68	

433	2.16	-167.4614410400391	1794.182006835938	-1002.9072265625	-308.5462036132813	1758.181030273438	-1063.380981445313	-334.5678405761719	1748.9677734375	-898.8880004882815	-373.5275573730469	1567.43798828125	-981.3838500976565	-378.5494995117188	1263.976318359375	-964.028503417969	-228.0833587646485	1536.310668945313	-984.947204589844	nan	nan	nan	254.5084381103516	1549.788818359375	-1019.259399414063	-287.5023803710938	1575.27783203125	-822.2107543945315	-139.0670013427735	1542.248657226563	-715.0603027343751	-105.9560699462891	1556.425415039063	-750.6433105468751	-69.97747802734376	1541.8515625	-705.2252197265626	-6.843400001525881	1543.94921875	-712.9345092773439	-11.08242416381836	1459.524536132813	-719.6638793945314	227.9937591552735	1535.86328125	-873.0638427734377	-208.3282165527344	1066.59814453125	-1068.094116210938	-192.3384399414063	1059.016967773438	-848.709655761719	-369.9510192871094	1115.816528320313	-945.0462036132815	-376.0671997070313	1082.127563476563	-970.3079223632815	-369.7005004882813	1086.434448242188	-913.3507080078127	-305.4114074707032	825.7224731445315	-1123.166137695313	-270.8072814941407	747.9702758789064	-1122.363403320313	-222.5233001708985	751.4316406250001	-1120.782592773438	-295.9929809570313	695.8021850585939	-1106.988037109375	-275.2685546875001	536.6706542968751	-1090.281372070313	-264.1245422363282	533.6174926757814	-967.7575683593752	-255.5974731445313	362.3149719238282	-1012.661193847656	-282.3737487792969	314.1394348144532	-1081.674438476563	-252.4760437011719	313.2057189941407	-1045.224731445313	-271.6294860839844	236.955307006836	-1013.361389160156	-327.0668945312501	122.3291778564453	-1056.01416015625	-306.8353881835938	129.869140625	-971.9725341796877	-388.9832763671876	98.96781158447268	-1008.096557617188	-180.8342437744141	58.74289321899415	-985.5900878906252	-180.0046081542969	59.77769470214845	-1032.614013671875	-216.4115753173829	46.38168716430665	-1079.142211914063	-271.8588867187501	789.1420898437502	-752.3687744140626	-226.4776611328126	739.0954589843751	-745.1802978515626	-194.2883911132813	744.0802001953126	-751.5750122070314	-244.0530242919922	656.5989379882814	-756.2187500000001	-243.1703033447266	547.1795654296876	-752.9524536132814	-245.7226104736329	530.9006347656251	-873.3873291015627	-217.4778442382813	413.5070190429689	-766.6113891601564	-298.3156433105469	357.7033386230469	-716.9663085937501	-257.4820251464844	343.2372741699219	-731.7515869140626	-254.6674804687501	289.1300048828126	-753.1634521484376	-342.7322082519532	146.2471923828125	-727.8020629882814	-319.3850097656251	149.3900299072266	-809.0134277343752	-403.8922119140626	120.3800277709961	-774.334411621094	-199.7752990722657	63.58016967773439	-788.5336914062502	-196.1248474121094	59.0585060119629	-752.2877807617189	-238.4864501953126	48.24608230590822	-701.0355224609376	226.405014038086	1518.014892578125	-990.2029418945315	-280.9732360839844	1579.911376953125	-1134.001220703125	-135.0142059326172	1543.004638671875	-1255.647705078125	-98.91999816894534	1553.864379882813	-1222.310791015625	-67.53896331787111	1537.29638671875	-1271.190307617188	-6.451214313507082	1535.228271484375	-1269.244995117188	-15.92149543762207	1454.090454101563	-1258.14697265625	238.3063659667969	1533.277099609375	-1123.101440429688	nan	nan	nan	nan	nan	nan	nan	nan	nan	nan	nan	nan	nan	nan	nan	nan	nan	nan	nan	nan	nan	nan	nan	nan	
434	2.165	-166.8799285888672	1793.985229492188	-1003.743347167969	-308.2306213378907	1758.140991210938	-1064.159301757813	-334.2558288574219	1749.280883789063	-899.9954833984377	-373.2835998535157	1567.28466796875	-982.1096801757815	-378.3898620605469	1264.261108398438	-964.9790039062502	-228.0840759277344	1536.188842773438	-985.6558227539065	nan	nan	nan	254.6058349609376	1549.641845703125	-1019.7705078125	-287.4081420898438	1574.686157226563	-822.6909790039065	-139.1110382080078	1542.223876953125	-715.7329711914064	-105.8877029418946	1556.172607421875	-751.1707153320314	-69.97045898437501	1541.799560546875	-705.9080810546876	-6.850858688354494	1543.6943359375	-713.4136962890626	-11.05579566955567	1459.240234375	-720.2326049804689	228.1519927978516	1535.6708984375	-873.6577758789065	-208.2373199462891	1066.620239257813	-1068.8564453125	-192.5384826660157	1058.977416992188	-849.4610595703127	-370.0686645507813	1115.873413085938	-945.7434692382815	-376.2042541503907	1082.243896484375	-971.0866699218752	-369.9201049804688	1086.576293945313	-914.106140136719	-305.5527648925782	825.6557617187502	-1123.715576171875	-270.9642333984376	747.8898315429689	-1122.80078125	-222.6318664550782	751.4857177734376	-1121.310180664063	-296.0715942382813	695.7650756835939	-1107.456665039063	-275.3855895996094	536.4911499023439	-1090.710815429688	-264.0182189941407	533.0821533203126	-967.9279785156252	-255.7010955810547	362.3666076660157	-1012.851013183594	-282.1942749023438	314.1367492675782	-1081.92626953125	-252.4749603271485	313.1770629882813	-1045.336059570313	-271.6625976562501	236.9068450927735	-1013.423217773438	-327.0239257812501	122.3046569824219	-1055.990234375	-306.8299255371094	129.8337097167969	-971.9641113281252	-389.0050659179689	98.95326232910159	-1008.117248535156	-180.8032531738282	58.71310424804689	-985.5261230468752	-179.9053802490235	59.83963775634767	-1032.60546875	-216.4260711669922	46.41128540039063	-1079.137817382813	-271.9177246093751	789.155944824219	-752.8290405273439	-226.3462524414063	739.1487426757814	-745.5647583007814	-194.1242218017579	744.2211914062501	-751.8807373046876	-243.8078613281251	656.8026123046876	-756.5556030273439	-242.6468353271485	547.2895507812501	-753.0020141601564	-245.2636871337891	530.9801635742189	-873.5020751953127	-216.9842987060547	413.3275756835939	-765.9577026367189	-297.8717956542969	357.9576110839844	-717.0091552734376	-257.0243835449219	343.5642089843751	-731.7764892578126	-254.3271789550782	289.3090515136719	-753.0743408203126	-342.5104064941407	146.5406494140625	-727.6895751953126	-319.2274780273438	149.5433502197266	-808.9607543945315	-403.5364074707032	120.4463348388672	-774.417907714844	-199.6660308837891	63.55805587768556	-788.4426269531252	-195.9721221923829	59.0110206604004	-752.1705932617189	-238.4763488769532	48.19877243041994	-701.0065917968751	225.6635131835938	1518.220336914063	-990.7309570312502	-280.7697753906251	1579.878051757813	-1134.755126953125	-134.8330841064453	1543.1376953125	-1256.35107421875	-98.72991943359378	1553.735473632813	-1222.940185546875	-67.53336334228517	1537.231811523438	-1271.670043945313	-6.416625976562502	1535.146484375	-1269.796020507813	-15.69679927825928	1454.155883789063	-1258.914916992188	238.3886260986329	1533.187866210938	-1123.52294921875	nan	nan	nan	nan	nan	nan	nan	nan	nan	nan	nan	nan	nan	nan	nan	nan	nan	nan	nan	nan	nan	nan	nan	nan	
435	2.17	-166.924789428711	1793.917602539063	-1004.269409179688	-308.1432189941407	1757.943603515625	-1064.687255859375	-334.1640625000001	1749.3193359375	-900.632751464844	-373.4167785644532	1568.10546875	-983.3505859375002	-378.6213073730469	1264.382080078125	-965.680603027344	-228.0987091064454	1536.108764648438	-986.2913208007815	nan	nan	nan	254.662582397461	1549.640869140625	-1020.314086914063	-287.1273193359376	1575.02099609375	-823.6739501953127	-139.0059967041016	1542.188842773438	-716.5684814453126	-105.6837387084961	1556.195678710938	-751.9317016601564	-69.94224548339845	1541.6513671875	-706.5204467773439	-6.68022680282593	1543.579711914063	-714.2333984375001	-10.86039733886719	1459.086547851563	-720.9521484375001	228.2510986328126	1535.427001953125	-874.1859130859377	-210.5478210449219	1065.91796875	-1068.441040039063	-192.8656463623047	1059.168579101563	-850.1160888671877	-370.1950683593751	1115.787109375	-946.425231933594	-376.3884887695313	1082.2080078125	-971.7213134765627	-370.1934814453126	1086.41015625	-914.847595214844	-305.6962280273438	825.6414794921877	-1124.2119140625	-270.9404296875001	747.7312622070314	-1123.35693359375	-222.7712402343751	751.4954833984376	-1121.844848632813	-296.1412353515626	695.7146606445314	-1107.904663085938	-275.3695983886719	536.3575439453126	-1091.11181640625	-264.0150756835938	533.2811889648439	-968.408142089844	-255.7362213134766	362.3348388671876	-1013.103332519531	-282.1321411132813	314.0124816894532	-1082.146240234375	-252.5164947509766	313.1864929199219	-1045.497314453125	-271.7205810546876	236.8987121582032	-1013.568603515625	-327.0624084472657	122.2083435058594	-1056.012329101563	-306.8258361816407	129.8681640625	-972.026550292969	-389.0057067871095	98.87846374511722	-1008.119750976563	-180.792953491211	58.61554336547853	-985.552673339844	-179.9564361572266	59.7305374145508	-1032.61767578125	-216.4095153808594	46.46681594848634	-1079.193237304688	-271.8356933593751	789.184997558594	-753.1773071289064	-226.1363220214844	739.2061157226564	-746.0745849609376	-193.9317932128907	744.4418945312501	-752.2946166992189	-243.6613922119141	656.9572753906251	-756.7578735351564	-242.2084197998047	547.5233154296876	-753.0988769531251	-244.7566528320313	531.0776367187501	-873.6302490234377	-216.4329223632813	413.5301818847657	-766.0061645507814	-297.5329284667969	358.1799926757813	-716.9934692382814	-256.8101196289063	343.6419372558594	-731.6219482421876	-254.3130035400391	289.9055786132813	-752.9116210937501	-342.4011840820313	146.7174530029297	-727.5308837890626	-318.9644165039063	149.7489166259766	-808.9075317382815	-403.1798095703126	120.6886901855469	-774.2108154296877	-199.6282653808594	63.55993652343751	-788.4134521484377	-195.9194030761719	58.95946121215822	-752.1594848632814	-238.4250183105469	48.20367813110353	-700.9799194335939	226.1033935546876	1517.903564453125	-991.291931152344	-280.7788391113282	1579.972778320313	-1135.509765625	-134.571762084961	1543.125732421875	-1257.025146484375	-98.4641036987305	1553.7724609375	-1223.629760742188	-67.18016052246095	1537.144897460938	-1272.46728515625	-6.611686706542971	1535.753662109375	-1270.4072265625	-15.28451728820801	1454.084106445313	-1259.609008789063	238.5050811767579	1533.067626953125	-1124.024169921875	nan	nan	nan	nan	nan	nan	nan	nan	nan	nan	nan	nan	nan	nan	nan	nan	nan	nan	nan	nan	nan	nan	nan	nan	
436	2.175	-166.3463592529297	1793.926513671875	-1005.02197265625	-307.8670959472657	1758.052001953125	-1065.27685546875	-334.1712341308594	1749.443969726563	-901.3748779296877	-373.2895202636719	1568.207397460938	-983.985046386719	-378.6544494628907	1264.358276367188	-966.6050415039065	-227.5018310546876	1536.236694335938	-987.1311035156252	nan	nan	nan	254.8961791992188	1549.306884765625	-1020.83642578125	-287.0479431152344	1575.079711914063	-824.4366455078127	-139.012924194336	1542.087036132813	-716.8328857421876	-105.6720962524414	1556.141235351563	-752.5156250000001	-69.80792236328126	1541.539794921875	-707.2814331054689	-6.531764984130861	1543.34765625	-714.9597778320314	-10.8959321975708	1459.11572265625	-721.7677001953126	228.2965087890626	1535.149780273438	-874.6708984375002	-210.6531219482422	1065.781005859375	-1069.032592773438	-193.1919250488282	1059.185424804688	-850.7336425781252	-370.4059753417969	1115.891967773438	-947.3975219726565	-376.6238403320313	1082.311889648438	-972.4766235351565	-370.4961853027344	1086.5244140625	-915.6362915039065	-305.7646484375001	825.4783935546877	-1124.910400390625	-270.9547729492188	747.6547851562501	-1123.837158203125	-222.9521636962891	751.4154052734376	-1122.475952148438	-296.1780395507813	695.5736694335939	-1108.458129882813	-275.3637695312501	536.2962036132814	-1091.428588867188	-264.1255493164063	533.4929809570314	-968.9827880859377	-255.8255462646485	362.3056640625001	-1013.339050292969	-282.0844421386719	313.9220581054688	-1082.352783203125	-252.5352020263672	313.1321716308594	-1045.620239257813	-271.7709960937501	236.8748931884766	-1013.655517578125	-327.0616149902344	122.099838256836	-1056.114135742188	-306.8012695312501	129.8462524414063	-972.030212402344	-389.0198059082032	98.92814636230472	-1008.0966796875	-180.8274688720703	58.69004440307619	-985.5546875000002	-179.8976440429688	59.83477783203126	-1032.608642578125	-216.4407806396485	46.42923736572266	-1079.127319335938	-271.7650451660157	789.2906494140627	-753.4735717773439	-226.0374908447266	739.4674072265626	-746.6558227539064	-193.8620758056641	744.5857543945314	-752.4974975585939	-243.4661102294922	657.1697998046876	-757.0626220703126	-241.6176300048829	547.7218017578126	-753.1965332031251	-244.2898864746094	531.1992187500001	-873.7427368164065	-215.9557342529297	413.9266967773439	-766.1087036132814	-297.0127258300782	358.5533752441407	-717.0826416015626	-256.6546936035157	343.8074951171876	-731.5338134765626	-254.1322021484376	290.1362609863282	-752.8200683593751	-342.1819458007813	146.9917755126953	-727.3508911132814	-318.6869812011719	149.9456787109375	-808.7620849609377	-403.0265502929689	121.260971069336	-774.0759277343752	-199.5838470458985	63.59788513183595	-788.4065551757815	-195.9014587402344	58.97874069213869	-752.1616210937501	-238.3973693847657	48.21331787109376	-700.9530029296876	226.5843963623047	1517.512084960938	-991.9368896484377	-280.8158874511719	1580.0341796875	-1136.16943359375	-134.2581634521485	1542.99755859375	-1257.677734375	-98.25505065917972	1553.680786132813	-1224.334106445313	-66.8089065551758	1537.21826171875	-1273.169067382813	-5.598964214324952	1535.059326171875	-1271.321411132813	-15.06292247772217	1454.04150390625	-1260.145385742188	238.6907806396485	1532.994018554688	-1124.6640625	nan	nan	nan	nan	nan	nan	nan	nan	nan	nan	nan	nan	nan	nan	nan	nan	nan	nan	nan	nan	nan	nan	nan	nan	
